<svg width="100" height="64" viewBox="0 0 100 64" fill="none" xmlns="http://www.w3.org/2000/svg">
  <defs>
    <linearGradient id="vo-gradient" x1="0" y1="0" x2="100" y2="0" gradientUnits="userSpaceOnUse">
      <stop offset="0%" stop-color="#00C2FF" />
      <stop offset="50%" stop-color="#7065F0" />
      <stop offset="100%" stop-color="#BD00FF" />
    </linearGradient>
  </defs>
  <!-- Left Brace { -->
  <path d="M24 12C24 12 14 12 14 22V26C14 26 14 32 8 32C14 32 14 38 14 38V42C14 52 24 52 24 52" stroke="url(#vo-gradient)" stroke-width="6" stroke-linecap="round" stroke-linejoin="round"/>
  
  <!-- Waveform -->
  <path d="M32 32 L36 20 L42 44 L48 10 L54 54 L60 26 L66 38 L70 32" stroke="url(#vo-gradient)" stroke-width="6" stroke-linecap="round" stroke-linejoin="round"/>
  
  <!-- Right Brace } -->
  <path d="M76 52C76 52 86 52 86 42V38C86 38 86 32 92 32C86 32 86 26 86 26V22C86 12 76 12 76 12" stroke="url(#vo-gradient)" stroke-width="6" stroke-linecap="round" stroke-linejoin="round"/>
</svg>
